<?xml version="1.0" standalone="no"?>
<!DOCTYPE svg PUBLIC "-//W3C//DTD SVG 20010904//EN"
 "http://www.w3.org/TR/2001/REC-SVG-20010904/DTD/svg10.dtd">
<svg version="1.0" xmlns="http://www.w3.org/2000/svg"
 width="64.000000pt" height="64.000000pt" viewBox="0 0 64.000000 64.000000"
 preserveAspectRatio="xMidYMid meet">
<metadata>
Created by potrace 1.10, written by Peter Selinger 2001-2011
</metadata>
<g transform="translate(0.000000,64.000000) scale(0.100000,-0.100000)"
fill="#000000" stroke="none">
<path d="M17 623 c-4 -3 -7 -108 -7 -231 0 -124 2 -223 5 -221 2 3 5 97 6 211
1 113 5 212 9 219 7 10 62 14 234 17 l226 3 0 -58 0 -58 -166 3 c-121 3 -169
0 -180 -9 -13 -10 -15 -42 -13 -178 l2 -166 -62 0 -62 0 3 -70 3 -70 240 -3
239 -2 68 67 68 67 -2 171 -2 170 -3 -168 -3 -167 -235 0 -235 0 0 170 0 170
240 0 241 0 -3 68 -3 67 -301 3 c-165 1 -303 -1 -307 -5z m595 -60 c3 -27 2
-52 -2 -56 -4 -5 -29 -7 -56 -5 l-49 3 -3 53 -3 52 54 0 55 0 4 -47z m-130
-431 c5 9 8 7 9 -7 1 -17 2 -17 6 -2 3 12 14 17 37 17 18 0 36 -3 39 -7 8 -7
-64 -79 -75 -76 -4 2 -8 -3 -8 -10 0 -10 -18 -14 -62 -15 -35 -1 -111 -5 -170
-8 l-108 -7 0 59 0 59 162 -8 c127 -6 163 -5 170 5z m-359 -11 c13 -1 17 -10
17 -47 l0 -45 -52 3 c-53 3 -53 3 -59 41 -7 43 9 59 51 53 14 -3 33 -5 43 -5z"/>
<path d="M490 320 c0 -105 3 -159 10 -155 13 8 13 302 0 310 -7 4 -10 -50 -10
-155z"/>
<path d="M431 364 c0 -11 3 -14 6 -6 3 7 2 16 -1 19 -3 4 -6 -2 -5 -13z"/>
<path d="M431 244 c0 -11 3 -14 6 -6 3 7 2 16 -1 19 -3 4 -6 -2 -5 -13z"/>
</g>
</svg>
